<svg fill="none" height="500" viewBox="0 0 500 500" width="500" xmlns="http://www.w3.org/2000/svg"><path clip-rule="evenodd" d="m41.6667 15.625h-26.0417v171.875h52.0833v-119.7917h119.7917v-52.0833zm-26.0417 296.875v171.875h171.875v-52.083h-119.7917v-119.792zm416.667-244.7917h-119.792v-52.0833h171.875v171.875h-52.083zm52.083 390.6247v-145.833h-52.083v119.792h-119.792v52.083h171.875z" fill="#000" fill-rule="evenodd"/><path d="m410.528 176.049-64.292-28.925c-7.986-13.074-27.889-22.124-51.792-22.124-31.152 0-55.555 15.375-55.555 34.999.004 2.774.501 5.53 1.472 8.162l-27.111 12.2c-9.455-3.623-19.64-5.449-29.917-5.362-31.152 0-55.555 15.374-55.555 34.999.004 2.774.501 5.529 1.472 8.162l-39.7778 17.887c-1.846.831-3.3981 2.109-4.4825 3.69-1.0843 1.58-1.6578 3.402-1.6564 5.26v79.997c-.0014 1.858.5721 3.679 1.6564 5.26 1.0844 1.581 2.6365 2.859 4.4825 3.69l88.8888 39.999c1.544.695 3.246 1.057 4.972 1.057s3.429-.362 4.973-1.057l222.222-99.997c1.846-.832 3.398-2.109 4.482-3.69 1.085-1.581 1.658-3.402 1.657-5.26v-79.998c.001-1.857-.572-3.679-1.657-5.26-1.084-1.58-2.636-2.858-4.482-3.689zm-227.195 97.772-64.041-28.824 23.764-10.688c10.055 6.613 24.277 10.688 40.277 10.688 31.153 0 55.556-15.375 55.556-34.999-.053-5.81-2.17-11.451-6.042-16.1l21.32-9.587c10.055 6.612 24.277 10.687 40.277 10.687 25.528 0 46.514-10.325 53.264-24.849l33 14.849zm111.111-128.822c19.084 0 33.334 7.925 33.334 15s-14.25 15-33.334 15c-19.083 0-33.333-7.925-33.333-15s14.25-15 33.333-15zm-111.111 49.999c19.084 0 33.334 7.925 33.334 15 0 7.074-14.25 14.999-33.334 14.999-13.43 0-24.458-3.925-29.819-8.75-.355-.414-.745-.803-1.167-1.162-1.405-1.405-2.233-3.2-2.347-5.087 0-7.075 14.25-15 33.333-15zm-77.777 66.173 66.666 29.999v57.649l-66.666-30zm88.888 87.648v-57.649l200-89.997v57.648z" fill="#8d742a"/></svg>